<svg xmlns="http://www.w3.org/2000/svg" xml:space="preserve" width="89.43" height="89.422" viewBox="0 0 23.662 23.66">
  <path d="M-19.732 315.231h183.311v125.056H-19.732z" style="fill:#162d50;fill-opacity:1;stroke:#000;stroke-width:.22426;stroke-linecap:square;stroke-linejoin:round;paint-order:fill markers stroke" transform="translate(9.496 -347.784)"/>
  <path d="M2.4 362.202h-.042c.037.02.055.027.041 0" style="fill:#fff;stroke-width:.13683" transform="translate(9.496 -347.784)"/>
  <path d="M2.398 356.664c.302.21.66.433.878.8.537 2.634 1.229 4.215 2.187 4.858-1.11-1.591-1.42-3.462-1.861-5.267 0 0-.955-.318-1.204-.391m3.56 2.746c-.022-.08-.047-.153-.068-.233l-.47-.137-.066-.097c.023.102.052.2.076.302q.227.117.528.164m.948 2.309a6 6 0 0 1-.166-.281.5.5 0 0 1-.218.045l.111.44c.101-.086.189-.146.273-.204" style="fill:#fff;stroke-width:.0705643" transform="translate(9.496 -347.784)"/>
  <path d="M6.906 361.718a3 3 0 0 0-.273.204l-.111-.44q.102.005.217-.045c-.333-.597-.578-1.283-.781-2.028a1.7 1.7 0 0 1-.528-.165c.272 1.127.636 2.202 1.368 3.057-.27.983-1.227 1.589-2.407 2.072.864-.314 1.505.014 2.974-2.04q-.252-.287-.46-.615m2.922-7.483c-.025-.022-.044-.042-.07-.064l-.007.65c.042.028.08.062.121.092a3.2 3.2 0 0 0-.045-.678zm-4.38 2.87a9 9 0 0 0-.41.35l.038.176c.144-.107.293-.21.417-.294z" style="fill:#fff;stroke-width:.0705643" transform="translate(9.496 -347.784)"/>
  <path d="m5.447 357.105.045.232c-.124.083-.273.187-.417.294l-.038-.176c-.216.198-.41.388-.646.593.274.468.541.94 1.04 1.197-.025-.101-.054-.2-.077-.302.01.018.065.097.065.097l.471.137c.02.08.046.153.068.232.329.051.73.033 1.24-.087.144.44.263.868.297 1.247-.327.555-.561.783-.756.868q.08.144.167.28c.19-.13.362-.248.617-.648.023.08.064-.097.06.922.193-.808.403-1.591.047-2.766.502-.121.468-.133.653-.2-1.487-.111-2.068.61-3.35-.87l1.256-1.07c.093-.428.07-.581.398-1.386.706-.47 1.304-.873 1.974-1.247.065-.392.106-.781.32-1.283.357.497.685 1.258.931 2.312q.052-.299.06-.568c-.04-.03-.08-.064-.12-.093l.006-.649c.026.022.044.043.07.064-.172-.977-.777-1.583-1.266-1.965a44 44 0 0 0-.427 1.895l-.273.162c-.57-.718-1.826-1.023-2.08-1.042.229.671.55 1.379.611 1.983-.352.209-.51.86-.63 1.594-.12.086-.217.164-.315.243zm-10.968-5.372c.231.264.48.518.737.765l.25.057-.925-.8z" style="fill:#fff;stroke-width:.0705643" transform="translate(9.496 -347.784)"/>
  <path d="m-5.521 351.733.062.021.925.801-.25-.057c2.14 2.055 4.99 3.483 5.514 3.489-6.183-3.729-6.8-6.146-7.035-6.48 3.426 2.703 7.019 5.1 11.053 6.696.11.407.201.828.29 1.252a9 9 0 0 1 .41-.35l-.245-1.28c-9.625-4.837-9.938-6.024-12.432-7.712.038 1.274.737 2.514 1.708 3.62m.132 2.488q.441.348.918.661c.137.013.246.024.406.037l-1.039-.646c-.086-.013-.188-.034-.285-.052" style="fill:#fff;stroke-width:.0705643" transform="translate(9.496 -347.784)"/>
  <path d="M-5.389 354.221c.097.018.2.039.285.052l1.039.646c-.16-.012-.27-.025-.406-.037a13 13 0 0 0 5.11 1.985c-2.56-1.167-5.132-1.745-7.656-5.085 1.36.582 1.187.474 2.233.716a13 13 0 0 1-.737-.765c-1.066-.34-2.1-.768-3.057-1.393.689 1.445 1.8 2.785 3.19 3.881m1.6 2.471.016.01q.004-.018.012-.022-.009.005-.028.012m-1.705-.385q.562.263 1.167.47c.333-.028.484-.062.538-.085l-.686-.366q-.518 0-1.02-.02z" style="fill:#fff;stroke-width:.0705643" transform="translate(9.496 -347.784)"/>
  <path d="M-5.493 356.307c.334.01.673.02 1.02.018l.685.367.028-.012a.03.03 0 0 0-.013.021l-.016-.009c-.053.022-.204.057-.538.084 1.373.47 2.896.715 4.526.71-2.664-.822-4.327-.526-7.654-3.135 1.388.35 1.883.434 2.984.531q-.477-.313-.918-.661c-1.177-.22-3.086-.8-4.07-1.24.992 1.443 2.346 2.563 3.965 3.326z" style="fill:#fff;stroke-width:.0705643" transform="translate(9.496 -347.784)"/>
  <path d="M-1.655 358.558c.011.005.017.007.03.015q0-.014-.03-.015m-1.254-.133q.469.101.953.174c.144-.028.256-.046.301-.04-.185-.1-.122-.064-.997-.182-.076.018-.169.032-.257.048" style="fill:#fff;stroke-width:.0667346" transform="translate(9.496 -347.784)"/>
  <path d="M-2.909 358.425c.088-.016.18-.03.257-.048.875.118.812.082.997.181q.029.002.03.015l-.03-.015a1.5 1.5 0 0 0-.301.041 12.3 12.3 0 0 0 2.632.121c-3.58-.56-6.274-1.577-6.8-1.921.903.024 1.448.005 1.798-.023a11 11 0 0 1-1.167-.47c-1.57-.053-2.947-.217-3.525-.313.097.05 2.77 1.718 6.11 2.432m1.64 1.336c-.004.002-.008.005-.017.019.008.004.008.007.02.01l.002-.029z" style="fill:#fff;stroke-width:.0667346" transform="translate(9.496 -347.784)"/>
  <path d="M-1.312 359.764c.001.004.016.01.027.016l.016-.018-.043.004z" style="fill:#fff;stroke-width:.0667346" transform="translate(9.496 -347.784)"/>
  <path d="M-1.312 359.764c.01 0 .035-.002.044-.004q.002-.002.005 0c.223-.021-.056-.033-.049.004m-.498.16c.129.002.268 0 .404-.001.05-.058.103-.119.121-.143-.01-.005-.026-.011-.027-.016-.07.005-.12.01-.28.016-.068.051-.144.096-.218.143z" style="fill:#fff;stroke-width:.0667346" transform="translate(9.496 -347.784)"/>
  <path d="M-1.81 359.924c.074-.046.15-.092.218-.143.16-.005.21-.01.28-.016-.007-.036.271-.024.049-.004l-.002.03c-.013-.005-.013-.008-.02-.012-.018.025-.07.086-.121.144a20 20 0 0 0 1.928-.108c-2.253-.234-4.505-.473-5.118-.839.926.014 2.085-.27 2.64-.378q-.484-.071-.953-.173c-1.042.187-2.82.22-3.467.114.493.497 1.685 1.333 4.566 1.385m1.535 1.398a8 8 0 0 0 1.498-.348c-.637.05-1.124.177-1.498.348" style="fill:#fff;stroke-width:.0667346" transform="translate(9.496 -347.784)"/>
  <path d="M-.275 361.322c.374-.17.86-.299 1.498-.348q.174-.057.349-.121c-2.26.152-3.584.208-4.25-.048.775-.385 1.111-.7 1.272-.882-.136 0-.275.004-.404.001-.813.508-1.978.751-2.655.85.602.355 2.256.81 4.19.548m2.195.886h-.03l.02.013z" style="fill:#fff;stroke-width:.0667346" transform="translate(9.496 -347.784)"/>
  <path d="m2.037 362.061-.015-.005-.239.095.105.058.031-.001.117-.146z" style="fill:#fff;stroke-width:.0667346" transform="translate(9.496 -347.784)"/>
  <path d="m2.05 362.046-.027.011.014.005q.007-.007.013-.016m-.255-.055q.13.031.228.065l.026-.01c.18-.22.413-.474.72-.774a4.3 4.3 0 0 0-.974.719" style="fill:#fff;stroke-width:.0667346" transform="translate(9.496 -347.784)"/>
  <path d="m1.588 362.219.301-.01-.105-.059.24-.094a3 3 0 0 0-.229-.065 4 4 0 0 0-.207.228" style="fill:#fff;stroke-width:.0667346" transform="translate(9.496 -347.784)"/>
  <path d="M1.588 362.219q.094-.114.207-.228c-.472-.111-1.258-.17-2.498.094.567-.443.056-.41 1.954-1.114l-.028.004a8 8 0 0 1-1.498.348c-1.132.517-1.244 1.42-1.452 1.674.774-.348 1.57-.697 3.315-.777z" style="fill:#fff;stroke-width:.0667346" transform="translate(9.496 -347.784)"/>
  <path d="M2.008 363.406q.218-.142.541-.319l.099-.272-.531.183zm-1.149.739c-.006.219.01.366 0 .385.18-.2.302-.358.426-.504a8 8 0 0 1-.427.119" style="fill:#fff;stroke-width:.0705643" transform="translate(9.496 -347.784)"/>
  <path d="M.859 364.145q.22-.055.426-.12a3 3 0 0 1 .723-.62l.109-.407.53-.183-.098.272c.24-.13.51-.272.866-.446-.222-.079-1.226-.005-1.968.63.009-.1-.064-.36.463-1.05l-.02-.013q-.156.004-.302.01a3.07 3.07 0 0 0-.73 1.927z" style="fill:#fff;stroke-width:.0667346" transform="translate(9.496 -347.784)"/>
  <path d="M-.217 366.633c.077-.053.152-.11.23-.162l.446-1.035a.7.7 0 0 0-.187.02c-.37.578-.429.868-.49 1.177" style="fill:#fff;stroke-width:.0705643" transform="translate(9.496 -347.784)"/>
  <path d="M-.217 366.633c.06-.309.12-.599.49-1.177-.788.169-2.42 1.45-3.687 1.192.2.167.403.33.688.394-1.964.946-2.463.38-2.87.34.715-.118 1.168-.447 1.52-.773-.576.135-.853.258-1.009.223-.775-.475-1.204-1.14-1.474-1.894 1.453.764 3.11.894 4.895.629-1.5-.63-1.294-.832-1.56-1.153 1.137.146 1.95.581 4.108.196.07-.012.13-.018.204-.032l.321-.341.125.183c.038.018.025.104-.002.204a4 4 0 0 1-.182.491c.488-.366 1.223-.577 1.953-.701l-1.213-.059.459-1.267a8 8 0 0 0-.541.318l-.114.425q-.3.1-.61.195c-.124.146-.246.304-.424.504.009-.018-.008-.166-.002-.385-1.02.252-2.326.325-4.842-.354.215.522.34 1.08.885 1.468-1.702.104-3.025-.463-4.188-1.317.287 1.084.331 1.864 1.553 3.04l-1.061.086c.617.493 2.443 2.018 4.305.963l.02.61c.63-.79 1.411-1.43 2.253-2.008m2.987 1.643c.033-.128.004-.077 0 0m-.112.314c.516-.347.956-.746 1.281-1.22l-.05-.015c-1.001 1.212-1.125 1.065-1.118.92-.007.031-.011.05-.03.107zm4.505-.073c.099.015.192.025.267.025.052-.251-.013-.297-.302-.48-.04-.002-.082-.009-.122-.01q.081.231.157.466z" style="fill:#fff;stroke-width:.0705643" transform="translate(9.496 -347.784)"/>
  <path d="M7.897 371.137h.452c-.307-1.354-.722-2.646-1.178-3.914.17-1.028.36-1.915.352-2.576-.172 1.066-.449 1.424-.806 2.622q.151.39.29.782.06.007.12.01c.29.183.355.23.303.48a2 2 0 0 1-.267-.024c.287.863.524 1.737.734 2.62" style="fill:#fff;stroke-width:.0705643" transform="translate(9.496 -347.784)"/>
  <path d="M2.563 371.137h1.66c.05-.408.093-.814.084-1.158.088-.362 1.016-.557 1.61-1.699.03-.058.746.165 1.246.237q-.075-.233-.157-.466c-1.258-.092-2.687-.584-3.067-.682-.325.475-.765.874-1.281 1.22l-.394.98c.105.601.21 1.108.3 1.568" style="fill:#fff;stroke-width:.0705643" transform="translate(9.496 -347.784)"/>
  <path d="M-.427 371.137h.55c.364-.567.728-1.156 1.135-1.792a9 9 0 0 0 1.4-.755l.084-.208c.018-.056.02-.076.029-.106.003-.077.033-.128 0 0-.007.144.117.291 1.118-.92.007.001.042.012.05.013.206-.299.37-.626.48-.99-1.113 1.351-2.26 2.14-3.42 2.679a57 57 0 0 0-1.426 2.079m-1.759 0h.502q.423-1.36.709-2.783l1.093-1.094c.164-1.049.539-1.738 1.415-2.636.026-.1.039-.186 0-.204l-.124-.183-.32.34c-.074.015-.134.02-.205.033-.266.341-.466.619-.611.846a.7.7 0 0 1 .186-.02l-.445 1.035q-.117.08-.231.162a3 3 0 0 1-.09.377l-1.076 1.056a33 33 0 0 1-.803 3.07zm11.882-3.447-.023-.226c.316-.698.459-1.746.63-2.678-.309.937-.586 1.91-1.038 2.585.124 1.296.24 2.53.354 3.766h.423c-.098-.986-.195-1.961-.292-2.91-.059.038-.112.067-.15.064-.208-.01.05-.397 0-.526z" style="fill:#fff;stroke-width:.0705643" transform="translate(9.496 -347.784)"/>
  <path d="M9.696 367.69c-.033.025-.063.053-.097.075.052.129-.207.515.001.526.038.002.091-.026.15-.065zm2.999-1.18c.007-.068.01-.133.018-.202l-.42.32c-.315.297-.629.53-.943.064a9 9 0 0 1-.353.454l1.317.498c.107-.25.245-.657.381-1.134" style="fill:#fff;stroke-width:.0705643" transform="translate(9.496 -347.784)"/>
  <path d="M12.695 366.51c-.137.477-.275.884-.382 1.134l-1.317-.498c.127-.15.242-.302.354-.454l-.012-.016c.001-.468-.027-.376-.015-1.101-.474.787-.957 1.617-1.627 2.115l.054.536c.27-.18.697-.69.716-.648.157.338.601 1.894.951 3.558h1.325c-.126-1.137-.241-2.82-.046-4.626z" style="fill:#fff;stroke-width:.0705643" transform="translate(9.496 -347.784)"/>
  <path d="M13.103 360.976c-.136-.002-.245 0-.39-.004q.206.067.408.118z" style="fill:#fff;stroke-width:.0557906" transform="translate(9.496 -347.784)"/>
  <path d="M11.334 355.804a9 9 0 0 0-.306-.373c-.045.03-.076.055-.122.086l.38.319z" style="fill:#fff;stroke-width:.0589929" transform="translate(9.496 -347.784)"/>
  <path d="m11.334 355.804-.048.032-.38-.319c.046-.031.077-.055.122-.086a12 12 0 0 0-1.201-1.196c.036.21.054.434.045.679.875.656 1.631 1.738 2.284 3.19a7 7 0 0 0-.78-.368c1.645 3.428 1.995 6.225-.026 8.956.314.466.628.233.942-.063l.42-.32c-.008.068-.01.133-.017.201.382-1.333.75-3.387.426-5.42a7 7 0 0 1-.408-.117l.39.004a7.5 7.5 0 0 0-.705-2.178c.216.124.38.249.544.373-.334-1.065-.648-2.134-1.608-3.367z" style="fill:#fff;stroke-width:.0705643" transform="translate(9.496 -347.784)"/>
  <path d="M14.04 353.843v-.64a49 49 0 0 1-3.012 2.228q.163.189.306.373a33 33 0 0 0 2.705-1.961m.001 2.092v-.405c-.43.397-.914.815-1.475 1.258.202-.015.78-.332 1.474-.853m.001 1.215v-.309c-.418.227-.838.448-1.252.693q.65-.149 1.251-.385m.001.822v-.215c-.255.083-.516.174-.789.286q.402-.024.788-.07" style="fill:#fff;stroke-width:.0589929" transform="translate(9.496 -347.784)"/>
  <path d="M14.04 359.07v-.196q-.464.127-.965.241c.327.005.647-.016.964-.046m.001.993v-.133l-.652.112q.34.017.651.021m.001 1.202v-.282c-.279.002-.605-.002-.937-.005l.018.114a7 7 0 0 0 .918.174z" style="fill:#fff;stroke-width:.0557906" transform="translate(9.496 -347.784)"/>
  <path d="M-9.212 347.784a.284.284 0 0 0-.284.283v23.093a.284.284 0 0 0 .284.283H13.88a.284.284 0 0 0 .286-.283v-23.093a.284.284 0 0 0-.286-.283zm.286.567h22.522v22.523H-8.926Z" style="baseline-shift:baseline;display:inline;overflow:visible;opacity:1;vector-effect:none;fill:#fff;stroke-width:1.00898;stroke-linecap:square;stroke-linejoin:round;paint-order:fill markers stroke;stop-color:#000;stop-opacity:1" transform="translate(9.496 -347.784)"/>
  <path d="M1.285 364.026q.308-.095.61-.195l.113-.425a3 3 0 0 0-.723.62" style="fill:#fff;stroke-width:.630071;stroke-linecap:square;stroke-linejoin:round;paint-order:fill markers stroke" transform="translate(9.496 -347.784)"/>
</svg>