<svg xmlns="http://www.w3.org/2000/svg" xml:space="preserve" width="481.473" height="91.455" viewBox="0 0 127.39 24.197">
  <path d="M359.62 346.183v.589l2.24.295 7.373 14.965h.965l6.34-14.523 2.17-.707v-.59h-6.167v.59l3.032.736-4.652 10.694-5.203-11.077 2.481-.383v-.59zm-38.593 15.85h.965l6.34-14.523 2.136-.707v-.59h-5.995v.59l2.894.766-4.652 10.664-5.202-11.077 2.48-.383v-.59h-8.132v.59l1.792.295c2.54 4.948 4.937 9.966 7.374 14.965zm-27.842-16.113c-1.654 0-3.158.333-4.514 1.001a7.993 7.993 0 0 0-3.204 2.77c-.781 1.178-1.172 2.552-1.172 4.123 0 1.572.403 2.956 1.207 4.154s1.894 2.131 3.273 2.799c1.378.648 2.917.972 4.617.972 1.884 0 3.48-.432 4.79-1.296 1.31-.864 2.125-2.023 2.446-3.476h-.792c-.276 1.217-1.023 2.21-2.24 2.975-1.218.766-2.619 1.149-4.204 1.149-1.723 0-3.044-.53-3.962-1.591-.896-1.08-1.345-2.484-1.345-4.212v-2.917h12.68c-.022-1.257-.355-2.367-.998-3.329-.643-.982-1.54-1.747-2.688-2.297-1.148-.55-2.446-.825-3.894-.825zm-.034.648c1.31 0 2.274.422 2.895 1.266.62.825.93 2.092.93 3.8h-8.856c.115-1.531.598-2.759 1.448-3.682s2.044-1.384 3.583-1.384zm46.689-.649c-1.653 0-3.158.333-4.513 1.001-1.355.648-2.435 1.572-3.24 2.77-.78 1.198-1.17 2.572-1.17 4.124 0 1.551.39 2.936 1.17 4.153.805 1.198 1.885 2.13 3.24 2.799 1.355.648 2.86.972 4.514.972 1.654 0 3.159-.324 4.514-.972 1.355-.668 2.423-1.6 3.204-2.799.804-1.217 1.206-2.602 1.206-4.153 0-1.552-.402-2.926-1.206-4.124-.78-1.198-1.849-2.121-3.204-2.77-1.355-.667-2.86-1.001-4.514-1.001zm0 .647c1.7 0 2.976.53 3.826 1.591.872 1.041 1.309 2.436 1.309 4.184v2.945c0 1.748-.437 3.152-1.31 4.213-.85 1.06-2.124 1.59-3.824 1.59-1.7 0-2.986-.53-3.86-1.59-.85-1.06-1.274-2.465-1.274-4.213v-2.945c0-1.748.425-3.143 1.275-4.184.873-1.06 2.159-1.59 3.859-1.59zm65.574-.648c-1.976 0-3.527.452-4.652 1.355-1.126.884-1.688 2.023-1.688 3.417 0 1.709 1.022 2.878 3.066 3.506l5.203 1.62c1.126.353 1.883.667 2.274.943.39.275.586.687.586 1.237 0 .943-.46 1.699-1.378 2.268-.919.55-2.102.825-3.55.825-1.079 0-1.94-.225-2.584-.677-.643-.452-.964-.983-.964-1.591 0-.53.252-1.031.758-1.502a1.636 1.636 0 0 0-.69-.825c-.321-.197-.712-.295-1.171-.295-.597 0-1.08.167-1.448.5-.344.315-.516.756-.516 1.326 0 1.1.632 1.994 1.895 2.681 1.263.688 2.837 1.03 4.72 1.03v.001c2.16 0 3.768-.47 4.825-1.413 1.056-.943 1.585-2.131 1.585-3.565 0-1.002-.287-1.817-.861-2.445-.575-.628-1.425-1.12-2.55-1.473l-4.825-1.473c-1.08-.334-1.826-.638-2.24-.913a1.299 1.299 0 0 1-.585-1.12c0-.451.184-.893.551-1.325.368-.431.908-.776 1.62-1.03.735-.276 1.608-.414 2.619-.414 1.171 0 2.033.178 2.584.531.574.354.861.805.861 1.355 0 .315-.057.59-.172.825-.115.216-.322.422-.62.619 0 .392.15.707.448.942.321.216.724.324 1.206.324s.873-.137 1.171-.413c.299-.294.448-.677.448-1.149 0-1.178-.586-2.082-1.757-2.71-1.149-.648-2.538-.972-4.17-.972zm-17.367 0c-1.654 0-3.159.333-4.514 1.001a7.993 7.993 0 0 0-3.205 2.77c-.78 1.178-1.171 2.553-1.171 4.124 0 1.57.402 2.955 1.206 4.153.804 1.198 1.895 2.13 3.273 2.799 1.379.648 2.918.972 4.617.972 1.884 0 3.481-.432 4.79-1.296 1.31-.864 2.125-2.023 2.447-3.476h-.793c-.276 1.217-1.022 2.21-2.24 2.975-1.217.766-2.618 1.149-4.204 1.149-1.722 0-3.043-.53-3.962-1.59-.896-1.08-1.344-2.485-1.344-4.213v-2.917h12.68c-.022-1.257-.355-2.366-.999-3.328-.643-.982-1.539-1.748-2.687-2.298-1.149-.55-2.447-.825-3.894-.825zm-.035.648c1.31 0 2.274.422 2.894 1.266.62.825.931 2.092.931 3.8h-8.856c.115-1.531.598-2.759 1.448-3.682s2.044-1.384 3.583-1.384zm-37.076-8.69v.589l2.585.295v21.8l-2.585.294v.589h8.442v-.59l-2.412-.294v-22.683z" style="font-size:3.175px;font-family:Prata;-inkscape-font-specification:Prata;fill:#fff;fill-opacity:1;stroke-width:1.354;stroke-dasharray:none" transform="translate(-284.296 -337.876)"/>
  <path d="M376.588 361.958q-.861 0-1.481-.5-.586-.53-.586-1.267 0-.737.586-1.208.62-.5 1.481-.5.862 0 1.448.5.585.471.585 1.208 0 .736-.585 1.267-.586.5-1.448.5z" aria-label="." style="font-size:23.5251px;font-family:Prata;-inkscape-font-specification:Prata;fill:#fff;fill-opacity:1;stroke-width:1.354;stroke-dasharray:none" transform="translate(-284.296 -337.876)"/>
  <path d="M312.096 361.876h-.102l-7.375-14.965-2.24-.295v-.394h-.945v.59l2.24.294 7.373 14.964.965.003zm4.117-9.708.046-.107-.456-.948-.046.107.411.856z" style="font-size:3.175px;font-family:Prata;-inkscape-font-specification:Prata;fill:#fff;fill-opacity:1;stroke-width:1.354;stroke-dasharray:none" transform="translate(-284.296 -337.876)"/>
  <path d="m313.23 357.116.452.96 2.53-5.908-.043-.092-.412-.856z" style="font-size:3.175px;font-family:Prata;-inkscape-font-specification:Prata;fill:#fff;fill-opacity:1;stroke-width:1.354;stroke-dasharray:none" transform="translate(-284.296 -337.876)"/>
</svg>