<svg xmlns="http://www.w3.org/2000/svg" xml:space="preserve" width="269.276" height="234.63" viewBox="0 0 71.246 62.079">
  <g style="fill:#dbdee3;fill-opacity:1;stroke-width:1.354;stroke-dasharray:none">
    <path d="M248.483 78.233c-3.95 4.782-3.222 5.123-3.772 6.883l-2.56 2.515c-2.485 11.427-4.512 12.777-4.72 14.582l7.655-.044c-.184-1.4-.417-3.018-1.787-3.684 1.833-2.44 3.296-4.933 5.14-7.81 3.652-1.59 6.508-3.71 7.523-7.059-2.648 3.216-5.376 5.095-8.14 6.376-2.21 3.05-4.044 5.95-5.979 8.89 1.724.935 2.032 1.68 2.007 2.383l-4.809.044c1.854-4.178 3.168-8.464 4.081-12.994l2.604-2.603c.427-2.738 1.442-4.44 3.993-6.905" style="fill:#dbdee3;fill-opacity:1;stroke-width:1.354;stroke-dasharray:none" transform="translate(-222.929 -40.134)"/>
    <path d="m233.262 102.21 48.424-.25c-16.01-.08-30.646-2.407-48.424.25" style="fill:#dbdee3;fill-opacity:1;stroke-width:1.354;stroke-dasharray:none" transform="translate(-222.929 -40.134)"/>
    <g style="fill:#dbdee3;fill-opacity:1;stroke-width:1.354;stroke-dasharray:none">
      <path d="M251.059 73.671c.086.046.13.065.097 0zm-1.045.014q-.036 0-.073.003l.05.027z" style="fill:#dbdee3;fill-opacity:1;stroke-width:1.354;stroke-dasharray:none" transform="translate(-222.929 -40.134)"/>
      <path d="m250.26 73.325-.57.225.25.137.074-.002q.129-.166.279-.348z" style="fill:#dbdee3;fill-opacity:1;stroke-width:1.354;stroke-dasharray:none" transform="translate(-222.929 -40.134)"/>
      <path d="m250.26 73.325.033.012.03-.036z" style="fill:#dbdee3;fill-opacity:1;stroke-width:1.354;stroke-dasharray:none" transform="translate(-222.929 -40.134)"/>
      <path d="M249.718 73.17q-.268.27-.494.542c.23-.01.473-.018.717-.025l-.25-.137.57-.225a6 6 0 0 0-.543-.155" style="fill:#dbdee3;fill-opacity:1;stroke-width:1.354;stroke-dasharray:none" transform="translate(-222.929 -40.134)"/>
      <path d="M249.718 73.17c.207.05.384.102.542.155l.062-.024c.43-.522.983-1.127 1.712-1.843-.96.53-1.716 1.112-2.316 1.712m-19.282-29.716c-.05-.07-.095-.115-.138-.107zm25.461 35.386a5 5 0 0 0-.477.197c.163-.064.317-.132.477-.197m3.569-12.37-1.122-.326-.155-.23c.664 2.945 1.54 5.776 3.437 7.993-.641 2.341-2.92 3.783-5.729 4.933 2.057-.747 3.582.033 7.08-4.858-1.735-1.952-2.747-4.536-3.511-7.511m-25.411-15.898c.22.05.325.07.596.136l-2.2-1.907-.15-.051a30 30 0 0 0 1.754 1.822m2.371 9.984.038.02c.006-.03.019-.041.03-.052zm-1.28.199c.793-.064 1.153-.147 1.28-.2l-1.632-.873a68 68 0 0 1-2.426-.044c.892.42 1.821.79 2.778 1.117m-.344-4.508c.324.028.586.056.964.087l-2.471-1.539c-.205-.03-.447-.08-.678-.122q1.05.828 2.185 1.574" style="fill:#dbdee3;fill-opacity:1;stroke-width:1.354;stroke-dasharray:none" transform="translate(-222.929 -40.134)"/>
      <g style="fill:#dbdee3;fill-opacity:1;stroke-width:1.354;stroke-dasharray:none">
        <path d="M235.146 60.756a27 27 0 0 1-2.778-1.117c-3.739-.127-7.013-.518-8.39-.746.308.156 11.657 7.265 23.076 6.491-8.525-1.333-14.936-3.754-16.185-4.574 2.146.057 3.443.014 4.277-.054" style="fill:#dbdee3;fill-opacity:1;stroke-width:1.354;stroke-dasharray:none" transform="translate(-222.929 -40.134)"/>
        <path d="M230.267 64.952c1.45 1.462 5.436 4.161 16.419 3.038-5.361-.557-10.724-1.126-12.182-1.996 3.004.046 7.093-1.242 7.072-.96-.557-.298-.236-.17-2.445-.468-2.331.55-7.194.663-8.864.386" style="fill:#dbdee3;fill-opacity:1;stroke-width:1.354;stroke-dasharray:none" transform="translate(-222.929 -40.134)"/>
        <path d="M234.816 70.272c1.876 1.106 8.035 2.63 14.369.187-5.378.364-8.53.496-10.116-.114 3.246-1.613 3.418-2.835 3.364-2.414-.599-.199 1.449-.105-.78-.023-1.92 1.45-5.079 2.108-6.837 2.364" style="fill:#dbdee3;fill-opacity:1;stroke-width:1.354;stroke-dasharray:none" transform="translate(-222.929 -40.134)"/>
        <path d="M248.422 70.74c-6.178.453-6.427 4.015-7.09 4.822 1.843-.83 3.74-1.659 7.892-1.85q.226-.273.494-.542c-1.124-.265-2.996-.406-5.948.223 1.35-1.055.133-.977 4.652-2.652m1.569 2.974-.05-.028c-.244.007-.487.014-.717.025-2.185 2.612-1.67 5.367-1.733 5.502 1.539-1.725 1.281-2.157 6.083-4.496-.53-.188-2.918-.012-4.685 1.5.02-.239-.153-.86 1.102-2.503m-21.755-33.581c.09 3.032 1.754 5.985 4.066 8.617l.148.05 2.2 1.908c-.27-.066-.376-.086-.595-.136 5.097 4.89 11.878 8.29 13.126 8.305-14.717-8.877-16.184-14.631-16.745-15.424q-.07-.053-.138-.107c.043-.008.088.037.138.107 8.154 6.432 16.707 12.14 26.31 15.938.3 1.105.543 2.249.779 3.399.342-.254.697-.501.992-.7-.227-1.177-.449-2.361-.689-3.599-22.91-11.515-23.655-14.34-29.592-18.358" style="fill:#dbdee3;fill-opacity:1;stroke-width:1.354;stroke-dasharray:none" transform="translate(-222.929 -40.134)"/>
        <path d="M251.09 60.468c.526.15 2.928.951 2.928.951 1.05 4.296 1.79 8.75 4.43 12.538-2.28-1.53-3.927-5.293-5.206-11.562-.534-.9-1.423-1.441-2.152-1.952m-17.035-9.87a30 30 0 0 1-1.753-1.822c-2.539-.81-4.997-1.83-7.277-3.316 1.64 3.44 4.286 6.63 7.592 9.239.23.043.473.092.678.122l2.471 1.54c-.378-.032-.64-.06-.964-.088 3.57 2.344 7.732 4.037 12.165 4.724-6.097-2.779-12.218-4.153-18.226-12.104 3.235 1.385 2.825 1.128 5.314 1.705" style="fill:#dbdee3;fill-opacity:1;stroke-width:1.354;stroke-dasharray:none" transform="translate(-222.929 -40.134)"/>
        <path d="M234.802 56.248a31 31 0 0 1-2.185-1.574c-2.802-.523-7.347-1.905-9.688-2.952 2.36 3.435 5.584 6.1 9.44 7.917a68 68 0 0 0 2.425.044l1.632.874.068-.032c.018-.017.024-.017 0 0a.1.1 0 0 0-.03.051l-.038-.02c-.127.053-.487.136-1.28.2 3.268 1.12 6.893 1.703 10.773 1.69-6.342-1.956-10.3-1.253-18.22-7.464 3.304.834 4.483 1.034 7.103 1.266" style="fill:#dbdee3;fill-opacity:1;stroke-width:1.354;stroke-dasharray:none" transform="translate(-222.929 -40.134)"/>
      </g>
      <path d="M248.034 79.327c-5.527 1.082-7.47-.03-10.264-.39.632.763.14 1.246 3.713 2.745-4.249.632-8.194.322-11.653-1.497.643 1.793 1.664 3.378 3.51 4.508.372.082 1.032-.209 2.402-.53-.838.774-1.916 1.559-3.619 1.84.97.093 2.156 1.442 6.833-.811-.679-.153-1.163-.539-1.638-.936 3.274.667 7.585-3 9.219-2.886l-1.06 2.465c-2.217 1.476-4.276 3.108-5.913 5.163l-.047-1.45c-4.434 2.51-8.78-1.12-10.248-2.294l2.527-.203c-2.91-2.802-3.016-4.658-3.697-7.238 2.767 2.032 5.916 3.384 9.968 3.136-1.298-.927-1.595-2.253-2.106-3.494 8.149 2.199 10.982 1.09 13.992.093l.53-1.98 1.264-.438-1.326 3.666 2.886.14c-1.738.296-3.488.797-4.649 1.67.198-.464.673-1.545.437-1.654l-.296-.437zm6.668 6.611c-3.95 4.781-2.181.684-2.732 2.445l-1.138 2.824c.87 4.986 1.815 7.408.741 10.875l5.62-.14c.422-1.401-.67-2.188-2.204-2.854.063-1.576.76-4.755.709-6.903.208-.863 2.417-1.326 3.829-4.045.086-.165 2.524.635 3.603.622.124-.596-.03-.706-.718-1.14-3.12-.163-6.872-1.483-7.71-1.684" style="fill:#dbdee3;fill-opacity:1;stroke-width:1.354;stroke-dasharray:none" transform="translate(-222.929 -40.134)"/>
      <path d="M263.352 79.49c-.409 2.54-1.068 3.392-1.92 6.244 2.08 5.31 3.317 10.808 4.28 16.413l5.935-.11c-.105-1.426-.078-3.083-2.03-4.413q-.574-5.889-1.147-11.427c.753-1.66 1.092-4.155 1.5-6.375-.735 2.232-1.396 4.55-2.47 6.155.4 4.206.805 8.308 1.146 12.221 1.609.86 2.185 1.891 2.03 3.044h-4.324c-.546-5.625-2.067-10.693-3.838-15.618.404-2.448.856-4.558.838-6.133" style="fill:#dbdee3;fill-opacity:1;stroke-width:1.354;stroke-dasharray:none" transform="translate(-222.929 -40.134)"/>
      <path d="M272.397 81.7c-1.182 1.966-2.385 4.052-4.103 5.214.123.306-.494 1.226.002 1.254.5.028 2.004-1.819 2.06-1.697.598 1.29 2.96 10.037 3.327 15.343l5.512.108c-.07-1.342-.618-3.457-3.028-3.757-.094-1.318-1.31-7.69-.461-14.719l-1.002.763c-.757.714-1.514 1.281-2.271.115.005-1.116-.063-.897-.036-2.623zm-41.961-38.246c-.05-.07-.095-.115-.138-.107zm30.798 29.551c.785-.672 1.244-.659 2.118-2.03.056.19.154-.231.143 2.195.459-1.925.96-3.788.11-6.585 1.197-.288 1.116-.316 1.556-.474-3.54-.267-4.924 1.45-7.975-2.074l2.99-2.548c.222-1.016.17-1.381.948-3.298 1.68-1.12 3.105-2.078 4.699-2.967.156-.934.251-1.86.76-3.055.852 1.185 1.631 2.996 2.218 5.504.742-4.157-1.382-6.396-2.978-7.644-.388 1.54-.71 3.027-1.015 4.511l-.65.387c-1.357-1.711-4.347-2.435-4.953-2.482.546 1.598 1.31 3.283 1.456 4.72-.84.498-1.214 2.046-1.5 3.795-1.494 1.076-2.177 1.883-3.266 2.824 1.177 2.006 2.298 4.065 6.685 3.033.342 1.049.626 2.065.706 2.967-1.089 1.85-1.753 2.19-2.317 2.173z" style="fill:#dbdee3;fill-opacity:1;stroke-width:1.354;stroke-dasharray:none" transform="translate(-222.929 -40.134)"/>
      <path d="M272.525 63.041c4.132 8.613 4.842 15.55-.905 22.4l3.136 1.186c1.24-2.9 4.217-13.256.202-21.059.514.297.903.593 1.295.89-1.126-3.59-2.088-7.18-7.581-11.903l-.016 1.545c2.208 1.534 4.1 4.2 5.725 7.815-.444-.267-1.123-.566-1.856-.874m21.65-3.291c-.223.146-8.213 6.718-17.606 6.574 6.685-1.522 11.472-3.874 12.345-4.63-5.118.43-4.676-.182-4.577.054l1.201-.837c3.813-.205 7.33-.85 8.637-1.162" style="fill:#dbdee3;fill-opacity:1;stroke-width:1.354;stroke-dasharray:none" transform="translate(-222.929 -40.134)"/>
      <path d="M290.11 65.198c-.927 1.311-3.699 3.792-12.798 3.33 4.253-.716 8.505-1.443 9.539-2.251-2.428.175-5.965-.739-5.9-.499.401-.279.163-.156 1.904-.509 1.984.363 5.947.24 7.254-.071" style="fill:#dbdee3;fill-opacity:1;stroke-width:1.354;stroke-dasharray:none" transform="translate(-222.929 -40.134)"/>
      <path d="M287.328 69.937c-1.333 1.027-6.067 2.605-11.621.808 4.423.068 7.003.038 8.184-.553-2.907-1.229-3.256-2.262-3.14-1.906.452-.197-1.193-.025.628-.055 1.806 1.15 4.48 1.568 5.95 1.706m.191-25.984c-3.692 3.302-4.18 5.603-16.116 13.807l.906.758c5.241-3.396 9.75-7.124 14.086-11.733-.455-.062.292 5.048-11.041 13.999 1.64-.112 13.6-8.49 12.165-16.83" style="fill:#dbdee3;fill-opacity:1;stroke-width:1.354;stroke-dasharray:none" transform="translate(-222.929 -40.134)"/>
      <path d="M291.03 48.327c-1.644 6.644-7.448 12.494-15.144 14.232 4.47-2.643 9.2-4.091 12.716-11.139-2.598 1.443-1.904.99-4.48 1.836l1.46-1.725c1.962-.814 3.82-1.808 5.447-3.204" style="fill:#dbdee3;fill-opacity:1;stroke-width:1.354;stroke-dasharray:none" transform="translate(-222.929 -40.134)"/>
      <path d="M293.802 53.59c-2.685 6.134-8.759 9.759-16.815 10.178 4.81-1.953 8.14-1.533 13.502-7.184-2.85.967-3.574 1.123-6.31 1.518l1.741-1.424c2.111-.463 6.02-2.007 7.882-3.087" style="fill:#dbdee3;fill-opacity:1;stroke-width:1.354;stroke-dasharray:none" transform="translate(-222.929 -40.134)"/>
    </g>
  </g>
</svg>